<svg width="705" height="188" viewBox="0 0 705 188" fill="none" xmlns="http://www.w3.org/2000/svg">
<g clip-path="url(#clip0_264_180)">
<path d="M214.361 91.1307C210.606 91.1307 208.694 88.808 208.694 84.1627C208.694 81.3618 208.831 78.0827 209.104 74.3255C209.445 67.904 209.582 62.3705 209.582 57.7935V36.0697C209.582 31.4243 209.445 25.8909 209.104 19.5377C208.831 15.7121 208.694 12.433 208.694 9.70048C208.694 5.05513 210.606 2.73246 214.361 2.73246H245.695L250.269 2.4592C251.293 2.39089 252.386 2.32257 253.478 2.18594C254.57 2.04932 255.662 2.04932 256.686 2.04932C260.032 2.04932 261.738 3.55222 261.738 6.48972V13.4577C261.738 16.3952 260.032 17.8982 256.686 17.8982C255.662 17.8982 254.57 17.8982 253.478 17.7615C252.317 17.6932 251.293 17.6249 250.269 17.4883L245.695 17.215H230.403C229.448 17.215 228.697 17.4883 228.151 18.1031C227.536 18.7179 227.263 19.4694 227.263 20.3575V36.7528C227.263 37.7092 227.536 38.4607 228.151 39.0072C228.765 39.622 229.516 39.8952 230.403 39.8952H240.029L244.603 39.622C245.627 39.5537 246.719 39.4854 247.812 39.3487C248.972 39.2804 249.996 39.2121 251.02 39.2121C254.365 39.2121 256.072 40.715 256.072 43.6525V49.3226C256.072 52.2601 254.365 53.763 251.02 53.763C249.996 53.763 248.904 53.763 247.812 53.6263C246.719 53.4897 245.627 53.4897 244.603 53.3531L240.029 53.0798H230.403C229.448 53.0798 228.697 53.3531 228.151 53.9679C227.536 54.5827 227.263 55.3342 227.263 56.2223V57.5886C227.263 62.2339 227.4 67.7673 227.741 74.1205C228.014 77.8778 228.151 81.2252 228.151 83.9577C228.151 88.6031 226.239 90.9258 222.484 90.9258H214.429L214.361 91.1307Z" fill="black"/>
<path d="M271.296 91.1308C268.36 91.1308 266.858 89.4229 266.858 85.9389L267.131 79.2442C267.2 77.6729 267.268 75.8968 267.405 73.984C267.473 72.0712 267.541 70.3634 267.541 68.7238V50.8939C267.541 49.3227 267.541 47.5465 267.405 45.6337C267.336 43.7209 267.268 42.0131 267.131 40.3735L266.858 33.6788C266.858 30.1947 268.36 28.4869 271.296 28.4869H277.576C278.874 28.4869 279.693 28.8285 280.239 29.4433C280.717 30.0581 280.99 31.0828 280.99 32.4491V37.0945C280.99 37.0945 281.126 37.5043 281.399 37.5043C281.672 37.5043 281.809 37.3677 281.877 37.0945C283.038 33.952 284.471 31.6293 286.042 30.1264C287.612 28.6235 289.66 27.8721 292.117 27.8721C295.736 27.8721 298.398 29.2384 300.173 31.9026C301.948 34.6352 302.835 38.1875 302.835 42.6279C302.835 45.5654 302.358 47.7514 301.47 49.0494C300.514 50.4157 299.081 51.0988 297.169 51.0988H291.844C290.889 51.0988 290.138 50.8256 289.592 50.2107C288.977 49.5959 288.704 48.8445 288.704 47.8197V45.0189C288.704 43.6526 288.499 42.6279 288.021 41.8764C287.543 41.125 286.929 40.7151 286.042 40.7151C284.267 40.7151 282.97 41.9447 282.219 44.3357C281.399 46.7267 280.99 51.4404 280.99 58.545V68.6555C280.99 70.2267 280.99 72.0029 281.126 73.9157C281.195 75.8285 281.263 77.5363 281.399 79.1758L281.672 85.8706C281.672 89.3546 280.171 91.0625 277.235 91.0625H271.296V91.1308Z" fill="black"/>
<path d="M311.915 87.3736C308.98 84.4361 307.546 80.1323 307.546 74.3256C307.546 69.202 308.775 65.2398 311.164 62.3707C313.553 59.5698 317.308 57.452 322.36 56.0858L336.764 52.0552C337.242 51.9186 337.72 51.577 338.062 51.0988C338.403 50.6207 338.539 50.1425 338.539 49.6643V46.3852C338.539 43.5843 337.993 41.5349 336.833 40.2369C335.672 38.939 333.965 38.2558 331.576 38.2558C329.187 38.2558 327.48 38.939 326.251 40.2369C325.091 41.5349 324.34 43.6526 324.135 46.5901C324.067 47.205 323.794 47.6148 323.452 47.9564C323.043 48.298 322.633 48.4346 322.155 48.4346H313.963C313.007 48.4346 312.256 48.1613 311.71 47.5465C311.096 46.9317 310.891 46.1802 310.959 45.2922C312.052 33.2689 318.947 27.189 331.644 27.189C338.471 27.189 343.523 28.6919 346.868 31.6977C350.213 34.7035 351.852 39.2122 351.852 45.2922V75.0087C351.852 75.9651 352.125 76.7166 352.739 77.2631C353.353 77.8779 354.104 78.1512 355.128 78.1512H357.518C358.474 78.1512 359.225 78.4244 359.771 79.0393C360.385 79.6541 360.658 80.4055 360.658 81.2936V87.7151C360.658 88.7398 360.385 89.5596 359.771 90.1061C359.156 90.6526 358.405 90.9942 357.518 90.9942H349.94C347.278 90.9942 345.025 90.3111 343.25 88.8765C341.475 87.5102 340.246 85.4608 339.563 82.7282C339.495 82.4549 339.427 82.1134 339.29 81.7035C339.154 81.2936 339.086 81.0887 338.881 81.0887C338.608 81.0887 338.471 81.2253 338.403 81.5669C337.379 84.5044 335.604 86.8954 333.078 88.7398C330.552 90.5843 327.344 91.5407 323.384 91.5407C318.674 91.5407 314.851 90.1061 311.983 87.1686L311.915 87.3736ZM336.014 75.3503C337.652 73.0276 338.471 69.407 338.471 64.4201V59.843C338.471 59.843 338.335 59.4332 338.062 59.5698L329.733 62.0974C325.022 63.532 322.633 66.7427 322.633 71.7297C322.633 73.8474 323.111 75.5552 324.135 76.8532C325.159 78.1512 326.661 78.8343 328.709 78.8343C331.917 78.8343 334.307 77.673 335.945 75.3503H336.014Z" fill="black"/>
<path d="M380.865 91.1308C376.974 91.1308 374.106 90.0378 372.195 87.92C370.283 85.8023 369.328 82.3183 369.328 77.6046V43.3793C369.328 42.9011 369.191 42.4229 368.85 42.0814C368.508 41.6715 368.031 41.5349 367.484 41.5349H364.958C363.934 41.5349 363.115 41.2616 362.569 40.6468C361.955 40.032 361.682 39.2805 361.682 38.3924V31.8343C361.682 30.8779 361.955 30.1264 362.569 29.5799C363.184 28.9651 363.934 28.6918 364.958 28.6918H367.484C367.962 28.6918 368.44 28.5552 368.781 28.2136C369.191 27.8721 369.328 27.3939 369.328 26.8474L369.055 10.452C369.055 9.49562 369.328 8.74416 369.942 8.19765C370.556 7.58283 371.307 7.30957 372.195 7.30957H379.909C380.865 7.30957 381.616 7.58283 382.162 8.19765C382.776 8.81248 383.049 9.56393 383.049 10.452L382.776 26.8474C382.776 27.3256 382.913 27.8038 383.254 28.1453C383.596 28.5552 384.073 28.6918 384.62 28.6918H387.623C388.579 28.6918 389.33 28.9651 389.876 29.5799C390.491 30.1947 390.764 30.9462 390.764 31.8343V38.3924C390.764 39.3488 390.491 40.1003 389.876 40.6468C389.262 41.1933 388.511 41.5349 387.623 41.5349H384.62C384.142 41.5349 383.664 41.6715 383.322 42.0131C382.913 42.3546 382.776 42.8328 382.776 43.3793V72.5494C382.776 73.6424 383.186 74.5305 383.937 75.282C384.688 75.9651 385.644 76.375 386.736 76.375H388.989C389.944 76.375 390.695 76.6482 391.242 77.2631C391.856 77.8779 392.129 78.6293 392.129 79.5174V87.8517C392.129 88.8764 391.856 89.6962 391.242 90.2427C390.627 90.7892 389.876 91.1308 388.989 91.1308H380.797H380.865Z" fill="black"/>
<path d="M408.719 87.9202C404.759 84.9827 401.96 80.269 400.39 73.9158C399.093 68.8606 398.479 64.1469 398.479 59.7748C398.479 55.4027 399.093 50.6207 400.39 45.7705C401.96 39.3489 404.759 34.7036 408.65 31.7661C412.542 28.8286 417.184 27.3257 422.509 27.3257C428.926 27.3257 434.114 29.9216 438.21 35.1818C442.306 40.3736 444.354 48.4347 444.354 59.16V60.5263C444.354 61.4827 444.081 62.2341 443.467 62.7806C442.852 63.3271 442.102 63.6687 441.214 63.6687H415.341C414.863 63.6687 414.385 63.8053 414.044 64.1469C413.634 64.4885 413.497 64.9667 413.497 65.5132C413.634 71.6614 414.59 75.8286 416.228 78.0146C417.867 80.2007 420.051 81.2937 422.85 81.2937C425.649 81.2937 427.629 80.4739 428.926 78.9027C430.155 77.3315 431.247 74.8722 432.066 71.7298C432.203 71.2516 432.544 70.7734 432.954 70.4318C433.363 70.0219 433.909 69.8853 434.456 69.8853H440.873C441.828 69.8853 442.511 70.1585 443.057 70.7734C443.603 71.3882 443.808 72.1396 443.603 73.0277C442.921 78.5611 440.736 83.2065 437.118 86.8955C433.432 90.5844 428.789 92.3606 423.191 92.3606C417.593 92.3606 412.746 90.8577 408.787 87.9202H408.719ZM428.516 55.1978C428.994 55.1978 429.472 55.0612 429.813 54.7196C430.223 54.378 430.36 53.8998 430.36 53.3533C429.95 43.3111 427.219 38.3242 422.167 38.3242C419.778 38.3242 417.798 39.3489 416.16 41.4667C414.521 43.5844 413.566 47.5466 413.293 53.3533C413.293 53.9681 413.497 54.378 413.839 54.7196C414.248 55.0612 414.658 55.1978 415.136 55.1978H428.38H428.516Z" fill="black"/>
<path d="M458.144 91.1308C455.209 91.1308 453.707 89.4229 453.707 85.9389L453.98 79.2442C454.048 77.6729 454.117 75.8968 454.253 73.984C454.321 72.0712 454.39 70.3634 454.39 68.7238V50.8939C454.39 49.3227 454.39 47.5465 454.253 45.6337C454.185 43.7209 454.117 42.0131 453.98 40.3735L453.707 33.6788C453.707 30.1947 455.209 28.4869 458.144 28.4869H464.425C465.722 28.4869 466.541 28.8285 467.087 29.4433C467.565 30.0581 467.838 31.0828 467.838 32.4491V37.0945C467.838 37.0945 467.975 37.5043 468.248 37.5043C468.521 37.5043 468.658 37.3677 468.726 37.0945C469.886 33.952 471.32 31.6293 472.89 30.1264C474.46 28.6235 476.508 27.8721 478.966 27.8721C482.584 27.8721 485.247 29.2384 487.022 31.9026C488.797 34.6352 489.684 38.1875 489.684 42.6279C489.684 45.5654 489.206 47.7514 488.319 49.0494C487.363 50.4157 485.929 51.0988 484.018 51.0988H478.693C477.737 51.0988 476.986 50.8256 476.44 50.2107C475.826 49.5959 475.553 48.8445 475.553 47.8197V45.0189C475.553 43.6526 475.348 42.6279 474.87 41.8764C474.392 41.125 473.778 40.7151 472.89 40.7151C471.115 40.7151 469.818 41.9447 469.067 44.3357C468.248 46.7267 467.838 51.4404 467.838 58.545V68.6555C467.838 70.2267 467.838 72.0029 467.975 73.9157C468.043 75.8285 468.111 77.5363 468.248 79.1758L468.521 85.8706C468.521 89.3546 467.019 91.0625 464.084 91.0625H458.144V91.1308Z" fill="black"/>
<path d="M501.221 91.1308C498.285 91.1308 496.783 89.4229 496.783 85.9389L497.056 79.2442C497.125 77.6729 497.193 75.8968 497.329 73.984C497.398 72.0712 497.466 70.3634 497.466 68.7238V50.8939C497.466 49.3227 497.466 47.5465 497.329 45.6337C497.261 43.7209 497.193 42.0131 497.056 40.3735L496.783 33.6788C496.783 30.1947 498.285 28.4869 501.221 28.4869H507.501C508.798 28.4869 509.618 28.8285 510.164 29.4433C510.642 30.0581 510.915 31.0828 510.915 32.4491V37.7776C510.915 37.7776 511.051 38.1875 511.324 38.1875C511.597 38.1875 511.734 38.0509 511.802 37.7776C513.099 34.9084 514.942 32.5857 517.468 30.6729C519.994 28.8285 522.793 27.8721 525.797 27.8721C529.756 27.8721 533.033 29.5116 535.696 32.7224C538.358 36.0014 539.655 40.4418 539.655 46.0436V68.6555C539.655 70.2267 539.655 72.0029 539.792 73.9157C539.928 75.8285 539.928 77.5363 540.065 79.1758L540.338 85.8706C540.338 89.3546 538.836 91.0625 535.901 91.0625H529.961C527.026 91.0625 525.524 89.3546 525.524 85.8706L525.797 79.1758C525.865 77.6046 525.933 75.8285 526.07 73.9157C526.138 72.0029 526.207 70.295 526.207 68.6555V52.2602C526.207 47.9564 525.66 44.9506 524.5 43.311C523.339 41.6715 521.769 40.7834 519.789 40.7834C517.195 40.7834 515.079 42.4913 513.441 45.907C511.802 49.3227 510.983 53.968 510.983 59.843V68.6555C510.983 70.2267 510.983 72.0029 511.119 73.9157C511.188 75.8285 511.256 77.5363 511.393 79.1758L511.666 85.8706C511.666 89.3546 510.164 91.0625 507.228 91.0625H501.289L501.221 91.1308Z" fill="black"/>
<path d="M553.924 19.6059C552.968 19.6059 552.217 19.3327 551.671 18.7179C551.056 18.103 550.783 17.3516 550.783 16.3269V6.55797C550.783 5.60157 551.056 4.85012 551.671 4.30361C552.285 3.68878 553.036 3.41553 553.924 3.41553H563.413C564.368 3.41553 565.119 3.68878 565.666 4.30361C566.28 4.91843 566.553 5.66989 566.553 6.55797V16.2586C566.553 17.2833 566.28 18.103 565.666 18.6495C565.051 19.1961 564.3 19.5376 563.413 19.5376H553.924V19.6059ZM555.698 91.1306C552.763 91.1306 551.261 89.4228 551.261 85.9388L551.534 79.244C551.602 77.6728 551.671 75.8966 551.807 73.9838C551.875 72.0711 551.944 70.3632 551.944 68.7237V50.8937C551.944 49.3225 551.944 47.5463 551.807 45.6336C551.739 43.7208 551.671 42.0129 551.534 40.3734L551.261 33.6786C551.261 30.1946 552.763 28.4867 555.698 28.4867H561.638C564.573 28.4867 566.075 30.1946 566.075 33.6786L565.802 40.3734C565.734 41.9446 565.666 43.7208 565.529 45.6336C565.461 47.5463 565.392 49.2542 565.392 50.8937V68.7237C565.392 70.2949 565.392 72.0711 565.529 73.9838C565.597 75.8966 565.666 77.6045 565.802 79.244L566.075 85.9388C566.075 89.4228 564.573 91.1306 561.638 91.1306H555.698Z" fill="black"/>
<path d="M592.768 91.1308C588.877 91.1308 586.01 90.0378 584.098 87.92C582.187 85.8023 581.231 82.3183 581.231 77.6046V43.3793C581.231 42.9011 581.094 42.4229 580.753 42.0814C580.412 41.6715 579.934 41.5349 579.388 41.5349H576.862C575.838 41.5349 575.019 41.2616 574.472 40.6468C573.858 40.032 573.585 39.2805 573.585 38.3924V31.8343C573.585 30.8779 573.858 30.1264 574.472 29.5799C575.087 28.9651 575.838 28.6918 576.862 28.6918H579.388C579.866 28.6918 580.343 28.5552 580.685 28.2136C581.094 27.8721 581.231 27.3939 581.231 26.8474L580.958 10.452C580.958 9.49562 581.231 8.74416 581.845 8.19765C582.46 7.58283 583.211 7.30957 584.098 7.30957H591.812C592.768 7.30957 593.519 7.58283 594.065 8.19765C594.68 8.81248 594.953 9.56393 594.953 10.452L594.68 26.8474C594.68 27.3256 594.816 27.8038 595.158 28.1453C595.499 28.5552 595.977 28.6918 596.523 28.6918H599.527C600.482 28.6918 601.233 28.9651 601.78 29.5799C602.394 30.1947 602.667 30.9462 602.667 31.8343V38.3924C602.667 39.3488 602.394 40.1003 601.78 40.6468C601.165 41.1933 600.414 41.5349 599.527 41.5349H596.523C596.045 41.5349 595.567 41.6715 595.226 42.0131C594.816 42.3546 594.68 42.8328 594.68 43.3793V72.5494C594.68 73.6424 595.089 74.5305 595.84 75.282C596.591 75.9651 597.547 76.375 598.639 76.375H600.892C601.848 76.375 602.599 76.6482 603.145 77.2631C603.759 77.8779 604.032 78.6293 604.032 79.5174V87.8517C604.032 88.8764 603.759 89.6962 603.145 90.2427C602.53 90.7892 601.78 91.1308 600.892 91.1308H592.7H592.768Z" fill="black"/>
<path d="M620.621 87.9202C616.661 84.9827 613.863 80.269 612.292 73.9158C610.995 68.8606 610.381 64.1469 610.381 59.7748C610.381 55.4027 610.995 50.6207 612.292 45.7704C613.863 39.3489 616.661 34.7036 620.553 31.7661C624.444 28.8286 629.086 27.3257 634.411 27.3257C640.828 27.3257 646.017 29.9216 650.113 35.1818C654.209 40.3736 656.257 48.4347 656.257 59.16V60.5263C656.257 61.4827 655.984 62.2341 655.369 62.7806C654.755 63.3271 654.004 63.6687 653.116 63.6687H627.243C626.765 63.6687 626.287 63.8053 625.946 64.1469C625.536 64.4885 625.4 64.9667 625.4 65.5132C625.536 71.6614 626.492 75.8286 628.13 78.0146C629.769 80.2007 631.953 81.2937 634.752 81.2937C637.551 81.2937 639.531 80.4739 640.828 78.9027C642.057 77.3315 643.149 74.8722 643.969 71.7298C644.105 71.2516 644.446 70.7734 644.856 70.4318C645.266 70.0219 645.812 69.8853 646.358 69.8853H652.775C653.731 69.8853 654.413 70.1585 654.96 70.7734C655.506 71.3882 655.711 72.1396 655.506 73.0277C654.823 78.5611 652.639 83.2065 649.02 86.8954C645.334 90.5844 640.692 92.3606 635.094 92.3606C629.496 92.3606 624.649 90.8577 620.689 87.9202H620.621ZM640.419 55.1978C640.896 55.1978 641.374 55.0611 641.716 54.7196C642.125 54.378 642.262 53.8998 642.262 53.3533C641.852 43.3111 639.121 38.3242 634.07 38.3242C631.68 38.3242 629.701 39.3489 628.062 41.4667C626.424 43.5844 625.468 47.5466 625.195 53.3533C625.195 53.9681 625.4 54.378 625.741 54.7196C626.151 55.0611 626.56 55.1978 627.038 55.1978H640.282H640.419ZM629.086 23.4318C628.404 22.8853 627.994 22.3388 627.994 21.7239C627.994 21.3824 628.062 21.0408 628.267 20.6992L635.23 3.4158C635.64 2.4594 636.118 1.84458 636.596 1.4347C637.073 1.02481 637.824 0.888184 638.712 0.888184H653.867C654.55 0.888184 655.164 1.02481 655.642 1.36638C656.12 1.70795 656.393 2.18615 656.393 2.86929C656.393 3.82568 655.984 4.57714 655.096 5.26028L632.363 23.8417C632.363 23.8417 631.612 24.2516 631.066 24.2516C630.383 24.2516 629.701 23.9783 628.95 23.4318H629.086Z" fill="black"/>
<path d="M670.388 87.7835C666.292 84.7094 663.835 80.4056 662.879 74.9405C662.742 73.9158 662.879 73.096 663.288 72.4129C663.698 71.7298 664.312 71.2516 665.2 71.0466L670.115 69.5437C670.593 69.4071 671.071 69.2705 671.412 69.2705C672.778 69.2705 673.802 70.0219 674.416 71.5248C676.669 77.2632 680.424 80.1324 685.544 80.1324C687.66 80.1324 689.23 79.5859 690.254 78.5611C691.278 77.5364 691.824 76.1018 691.824 74.3257C691.824 72.4129 691.073 70.8417 689.572 69.6803C688.07 68.519 685.544 67.1527 682.13 65.5815C678.58 63.8053 676.464 62.7123 675.713 62.3024C672.232 60.3896 669.569 58.067 667.726 55.3344C665.814 52.6702 664.859 49.3911 664.859 45.6338C664.859 40.1687 666.497 35.7283 669.842 32.3809C673.187 29.0335 677.966 27.3257 684.315 27.3257C689.64 27.3257 694.009 28.8286 697.354 31.7661C700.767 34.7036 702.815 38.6658 703.635 43.5161C703.703 44.4725 703.498 45.2239 703.02 45.7704C702.542 46.3853 701.791 46.6585 700.904 46.6585H694.692C693.394 46.6585 692.575 46.0437 692.166 44.7457C691.346 42.4914 690.186 40.8518 688.821 39.8271C687.455 38.8024 685.749 38.3242 683.7 38.3242C681.857 38.3242 680.355 38.8707 679.195 39.8955C678.034 40.9202 677.488 42.1498 677.488 43.5161C677.488 45.7704 678.171 47.4783 679.604 48.6396C681.038 49.801 683.427 51.0306 686.773 52.4652C690.391 54.1731 692.507 55.1978 693.053 55.471C696.808 57.5888 699.812 59.9798 701.86 62.644C703.976 65.3082 705 68.7923 705 73.096C705 78.6295 703.293 83.2748 699.812 86.9638C696.33 90.6527 691.62 92.4289 685.544 92.4289C679.468 92.4289 674.416 90.8577 670.32 87.7835H670.388Z" fill="black"/>
<path d="M210.674 167.164C208.08 159.65 206.783 151.452 206.783 142.503C206.783 133.554 208.08 125.22 210.674 117.842C215.658 103.974 225.079 97.0059 239.074 97.0059C253.069 97.0059 262.626 103.974 267.473 117.842C270.067 125.151 271.364 133.417 271.364 142.503C271.364 151.589 270.067 159.65 267.473 167.164C262.626 181.032 253.137 188 239.074 188C225.011 188 215.658 181.032 210.674 167.164ZM246.993 171.878C248.7 169.555 249.928 165.593 250.748 160.06C251.362 155.004 251.635 149.129 251.635 142.503C251.635 135.877 251.362 129.933 250.748 124.946C249.997 119.413 248.768 115.451 246.993 113.128C245.286 110.805 242.624 109.644 239.074 109.644C235.524 109.644 232.93 110.805 231.155 113.128C229.448 115.451 228.219 119.413 227.4 124.946C226.786 129.933 226.513 135.74 226.513 142.503C226.513 149.266 226.786 155.004 227.4 160.06C228.151 165.593 229.38 169.555 231.155 171.878C232.861 174.201 235.524 175.362 239.074 175.362C242.624 175.362 245.218 174.201 246.993 171.878Z" fill="black"/>
<path d="M287.27 182.535C284.608 179.324 283.311 174.884 283.311 169.214V146.602C283.311 145.031 283.311 143.254 283.174 141.342C283.106 139.429 283.038 137.721 282.901 136.081L282.628 129.387C282.628 125.903 284.13 124.195 287.065 124.195H293.005C295.94 124.195 297.442 125.903 297.442 129.387L297.169 136.081C297.101 137.653 297.032 139.429 296.896 141.342C296.828 143.254 296.759 144.962 296.759 146.602V162.997C296.759 167.369 297.305 170.375 298.466 172.015C299.627 173.654 301.197 174.474 303.176 174.474C305.771 174.474 307.887 172.766 309.525 169.35C311.164 165.935 311.983 161.289 311.983 155.414V146.602C311.983 145.031 311.983 143.254 311.846 141.342C311.778 139.429 311.71 137.721 311.573 136.081L311.3 129.387C311.3 125.903 312.802 124.195 315.738 124.195H321.677C324.613 124.195 326.114 125.903 326.114 129.387L325.841 136.081C325.773 137.653 325.705 139.429 325.568 141.342C325.5 143.254 325.432 144.962 325.432 146.602V164.432C325.432 166.003 325.432 167.779 325.568 169.692C325.705 171.605 325.705 173.313 325.841 174.952L326.114 181.647C326.114 185.131 324.613 186.839 321.677 186.839H315.396C314.099 186.839 313.28 186.497 312.734 185.882C312.256 185.267 311.983 184.243 311.983 182.945V177.753C311.983 177.753 311.846 177.343 311.573 177.343C311.437 177.343 311.232 177.48 311.096 177.753C309.798 180.554 307.955 182.877 305.429 184.721C302.903 186.565 300.104 187.522 297.101 187.522C293.141 187.522 289.864 185.882 287.202 182.672L287.27 182.535Z" fill="black"/>
<path d="M351.852 186.77C349.462 186.77 348.029 185.472 347.414 183.013L338.608 146.124L335.945 136.423L334.034 129.455C333.897 128.977 333.761 128.294 333.761 127.406C333.761 125.288 334.921 124.263 337.174 124.263H343.591C346.595 124.263 348.438 125.903 349.053 129.182L350.418 137.038C351.032 140.863 351.51 143.938 351.92 146.26L355.743 164.363C355.879 164.842 356.221 165.115 356.63 165.115H357.04C357.518 165.115 357.859 164.842 357.927 164.363L361.614 146.26C361.955 144.757 362.638 140.522 363.662 133.622L364.276 129.182C365.027 125.903 366.871 124.263 369.738 124.263H373.902C376.223 124.263 377.452 125.356 377.452 127.542C377.452 127.952 377.384 128.567 377.179 129.455L375.267 136.56L372.742 146.192L364.686 183.218C364.208 185.677 362.775 186.907 360.385 186.907H351.92L351.852 186.77Z" fill="black"/>
<path d="M388.647 186.77C385.712 186.77 384.21 185.063 384.21 181.579L384.483 174.884C384.551 173.313 384.62 171.536 384.756 169.624C384.824 167.711 384.893 166.003 384.893 164.363V146.534C384.893 144.962 384.893 143.186 384.756 141.273C384.688 139.361 384.62 137.653 384.483 136.013L384.21 129.318C384.21 125.834 385.712 124.127 388.647 124.127H394.928C396.225 124.127 397.044 124.468 397.59 125.083C398.068 125.698 398.341 126.722 398.341 128.089V132.734C398.341 132.734 398.478 133.144 398.751 133.144C399.024 133.144 399.161 133.007 399.229 132.734C400.389 129.592 401.823 127.269 403.393 125.766C404.963 124.263 407.011 123.512 409.469 123.512C413.087 123.512 415.75 124.878 417.525 127.542C419.3 130.275 420.187 133.827 420.187 138.268C420.187 141.205 419.709 143.391 418.822 144.689C417.866 146.055 416.432 146.738 414.521 146.738H409.196C408.24 146.738 407.489 146.465 406.943 145.85C406.329 145.236 406.056 144.484 406.056 143.459V140.659C406.056 139.292 405.851 138.268 405.373 137.516C404.895 136.765 404.281 136.355 403.393 136.355C401.618 136.355 400.321 137.584 399.57 139.975C398.751 142.366 398.341 147.08 398.341 154.185V164.295C398.341 165.866 398.341 167.643 398.478 169.555C398.546 171.468 398.614 173.176 398.751 174.815L399.024 181.51C399.024 184.994 397.522 186.702 394.587 186.702H388.647V186.77Z" fill="black"/>
<path d="M430.018 115.246C429.063 115.246 428.312 114.972 427.765 114.358C427.151 113.743 426.878 112.991 426.878 111.967V102.266C426.878 101.31 427.151 100.558 427.765 100.012C428.38 99.3968 429.131 99.1235 430.018 99.1235H439.507C440.463 99.1235 441.214 99.3968 441.76 100.012C442.375 100.626 442.648 101.378 442.648 102.266V111.967C442.648 112.991 442.375 113.811 441.76 114.358C441.146 114.904 440.395 115.246 439.507 115.246H430.018ZM431.793 186.77C428.858 186.77 427.356 185.062 427.356 181.578L427.629 174.884C427.697 173.312 427.765 171.536 427.902 169.624C427.97 167.711 428.038 166.003 428.038 164.363V146.533C428.038 144.962 428.038 143.186 427.902 141.273C427.834 139.36 427.765 137.653 427.629 136.013L427.356 129.318C427.356 125.834 428.858 124.126 431.793 124.126H437.733C440.668 124.126 442.17 125.834 442.17 129.318L441.897 136.013C441.829 137.584 441.76 139.36 441.624 141.273C441.555 143.186 441.487 144.894 441.487 146.533V164.363C441.487 165.935 441.487 167.711 441.624 169.624C441.692 171.536 441.76 173.244 441.897 174.884L442.17 181.578C442.17 185.062 440.668 186.77 437.733 186.77H431.793Z" fill="black"/>
<path d="M461.217 183.56C457.257 180.622 454.458 175.909 452.888 169.555C451.591 164.5 450.977 159.787 450.977 155.414C450.977 151.042 451.591 146.26 452.888 141.41C454.458 134.989 457.257 130.343 461.148 127.406C465.04 124.468 469.682 122.965 475.007 122.965C481.424 122.965 486.612 125.561 490.708 130.821C494.804 136.013 496.852 144.074 496.852 154.8V156.166C496.852 157.122 496.579 157.874 495.965 158.42C495.351 158.967 494.6 159.308 493.712 159.308H467.839C467.361 159.308 466.883 159.445 466.542 159.787C466.132 160.128 465.995 160.606 465.995 161.153C466.132 167.301 467.088 171.468 468.726 173.654C470.365 175.84 472.549 176.933 475.348 176.933C478.147 176.933 480.127 176.114 481.424 174.542C482.653 172.971 483.745 170.512 484.564 167.369C484.701 166.891 485.042 166.413 485.452 166.071C485.861 165.662 486.408 165.525 486.954 165.525H493.371C494.327 165.525 495.009 165.798 495.555 166.413C496.101 167.028 496.306 167.779 496.101 168.667C495.419 174.201 493.234 178.846 489.616 182.535C485.93 186.224 481.287 188 475.689 188C470.092 188 465.245 186.497 461.285 183.56H461.217ZM476.372 119.481L453.639 100.9C452.82 100.217 452.41 99.397 452.41 98.5089C452.41 97.8258 452.683 97.3476 453.161 97.006C453.639 96.6645 454.253 96.5278 454.936 96.5278H470.092C471.047 96.5278 471.73 96.7328 472.208 97.0743C472.686 97.4842 473.164 98.0991 473.573 99.0554L480.536 116.339C480.536 116.339 480.81 117.022 480.81 117.364C480.81 117.978 480.468 118.525 479.717 119.071C479.035 119.618 478.284 119.891 477.601 119.891C477.191 119.891 476.782 119.755 476.304 119.481H476.372ZM481.014 150.837C481.492 150.837 481.97 150.701 482.311 150.359C482.721 150.018 482.858 149.539 482.858 148.993C482.448 138.951 479.717 133.964 474.665 133.964C472.276 133.964 470.296 134.989 468.658 137.106C467.019 139.224 466.064 143.186 465.791 148.993C465.791 149.608 465.995 150.018 466.337 150.359C466.746 150.701 467.156 150.837 467.634 150.837H480.878H481.014Z" fill="black"/>
<path d="M510.574 186.77C507.639 186.77 506.137 185.063 506.137 181.579L506.41 174.884C506.478 173.313 506.546 171.536 506.683 169.624C506.751 167.711 506.819 166.003 506.819 164.363V146.534C506.819 144.962 506.819 143.186 506.683 141.273C506.615 139.361 506.546 137.653 506.41 136.013L506.137 129.318C506.137 125.834 507.639 124.127 510.574 124.127H516.855C518.152 124.127 518.971 124.468 519.517 125.083C519.995 125.698 520.268 126.722 520.268 128.089V132.734C520.268 132.734 520.405 133.144 520.678 133.144C520.951 133.144 521.087 133.007 521.156 132.734C522.316 129.592 523.75 127.269 525.32 125.766C526.89 124.263 528.938 123.512 531.396 123.512C535.014 123.512 537.676 124.878 539.451 127.542C541.226 130.275 542.114 133.827 542.114 138.268C542.114 141.205 541.636 143.391 540.748 144.689C539.793 146.055 538.359 146.738 536.448 146.738H531.123C530.167 146.738 529.416 146.465 528.87 145.85C528.255 145.236 527.982 144.484 527.982 143.459V140.659C527.982 139.292 527.778 138.268 527.3 137.516C526.822 136.765 526.207 136.355 525.32 136.355C523.545 136.355 522.248 137.584 521.497 139.975C520.678 142.366 520.268 147.08 520.268 154.185V164.295C520.268 165.866 520.268 167.643 520.405 169.555C520.473 171.468 520.541 173.176 520.678 174.815L520.951 181.51C520.951 184.994 519.449 186.702 516.513 186.702H510.574V186.77Z" fill="black"/>
<path d="M557.951 183.56C553.992 180.622 551.193 175.909 549.622 169.555C548.325 164.5 547.711 159.787 547.711 155.414C547.711 151.042 548.325 146.26 549.622 141.41C551.193 134.989 553.992 130.343 557.883 127.406C561.774 124.468 566.416 122.965 571.741 122.965C578.158 122.965 583.347 125.561 587.443 130.821C591.539 136.013 593.587 144.074 593.587 154.8V156.166C593.587 157.122 593.314 157.874 592.699 158.42C592.085 158.967 591.334 159.308 590.446 159.308H564.573C564.095 159.308 563.617 159.445 563.276 159.787C562.866 160.128 562.73 160.606 562.73 161.153C562.866 167.301 563.822 171.468 565.461 173.654C567.099 175.84 569.284 176.933 572.082 176.933C574.881 176.933 576.861 176.114 578.158 174.542C579.387 172.971 580.479 170.512 581.299 167.369C581.435 166.891 581.776 166.413 582.186 166.071C582.596 165.662 583.142 165.525 583.688 165.525H590.105C591.061 165.525 591.744 165.798 592.29 166.413C592.836 167.028 593.041 167.779 592.836 168.667C592.153 174.201 589.969 178.846 586.35 182.535C582.664 186.224 578.022 188 572.424 188C566.826 188 561.979 186.497 558.019 183.56H557.951ZM577.749 150.837C578.227 150.837 578.704 150.701 579.046 150.359C579.455 150.018 579.592 149.539 579.592 148.993C579.182 138.951 576.452 133.964 571.4 133.964C569.01 133.964 567.031 134.989 565.392 137.106C563.754 139.224 562.798 143.186 562.525 148.993C562.525 149.608 562.73 150.018 563.071 150.359C563.481 150.701 563.89 150.837 564.368 150.837H577.612H577.749Z" fill="black"/>
<path d="M607.719 183.423C603.623 180.349 601.165 176.045 600.209 170.58C600.073 169.555 600.209 168.736 600.619 168.053C601.029 167.369 601.643 166.891 602.531 166.686L607.446 165.183C607.924 165.047 608.402 164.91 608.743 164.91C610.108 164.91 611.132 165.662 611.747 167.164C613.999 172.903 617.754 175.772 622.874 175.772C624.991 175.772 626.561 175.226 627.585 174.201C628.609 173.176 629.155 171.741 629.155 169.965C629.155 168.053 628.404 166.481 626.902 165.32C625.4 164.159 622.874 162.792 619.461 161.221C615.911 159.445 613.795 158.352 613.044 157.942C609.562 156.029 606.9 153.707 605.056 150.974C603.145 148.31 602.189 145.031 602.189 141.273C602.189 135.808 603.828 131.368 607.173 128.021C610.518 124.673 615.297 122.965 621.645 122.965C626.97 122.965 631.339 124.468 634.685 127.406C638.098 130.343 640.146 134.305 640.965 139.156C641.033 140.112 640.829 140.864 640.351 141.41C639.873 142.025 639.122 142.298 638.234 142.298H632.022C630.725 142.298 629.906 141.683 629.496 140.385C628.677 138.131 627.516 136.491 626.151 135.467C624.786 134.442 623.079 133.964 621.031 133.964C619.188 133.964 617.686 134.51 616.525 135.535C615.365 136.56 614.819 137.789 614.819 139.156C614.819 141.41 615.501 143.118 616.935 144.279C618.369 145.441 620.758 146.67 624.103 148.105C627.721 149.813 629.838 150.837 630.384 151.111C634.138 153.228 637.142 155.619 639.19 158.284C641.307 160.948 642.331 164.432 642.331 168.736C642.331 174.269 640.624 178.914 637.142 182.603C633.661 186.292 628.95 188.069 622.874 188.069C616.798 188.069 611.747 186.497 607.651 183.423H607.719Z" fill="black"/>
<path d="M0 3.00572C0 1.02462 1.09228 -9.08405e-05 3.20858 -9.08405e-05H76.528C77.4838 -9.08405e-05 77.9617 0.273165 77.9617 0.819677C77.9617 1.36619 77.552 1.9127 76.7328 2.3909C74.6165 3.62055 73.0464 4.91851 72.0224 6.42142C70.9984 7.85601 70.5205 9.63218 70.5205 11.6133C70.5205 13.1162 70.9301 14.4825 71.7493 15.8487C72.5685 17.215 74.0021 19.1961 76.1867 21.8604C78.1665 24.1147 79.8049 26.3008 81.102 28.2819C82.3991 30.263 83.15 32.3807 83.4231 34.4985C84.5154 41.6031 85.949 62.9854 87.8605 98.6453C87.8605 98.9185 87.7239 99.1918 87.4509 99.5333C87.1778 99.8749 86.8365 100.012 86.4268 100.012H86.222C85.5394 100.012 85.0615 99.5333 84.7884 98.577C81.8529 80.4054 78.5761 64.8299 74.8896 51.9868C71.2032 39.0755 66.561 27.4621 60.963 17.215C60.5534 16.3953 59.8707 15.7121 58.9833 15.2339C58.0275 14.6874 57.14 14.4142 56.1843 14.4142H34.1338C33.1781 14.4142 32.6319 14.6191 32.4271 15.029C32.2223 15.4389 32.4271 15.9854 33.1098 16.6002C43.5548 29.17 53.044 45.497 61.6457 65.6496C70.2474 85.7339 76.528 108.961 80.351 135.33C80.4876 136.286 80.8972 137.038 81.5798 137.653C82.2625 138.267 83.0135 138.541 83.9692 138.541H100.422C101.241 138.541 101.992 138.267 102.743 137.653C103.494 137.038 103.903 136.286 104.04 135.33C107.931 109.029 114.144 85.8022 122.745 65.6496C131.347 45.5653 140.904 29.17 151.281 16.6002C151.827 16.1903 152.1 15.7804 152.1 15.3705C152.1 14.6874 151.486 14.3458 150.325 14.3458H128.275C127.319 14.3458 126.432 14.6191 125.476 15.1656C124.52 15.7121 123.906 16.3953 123.496 17.1467C117.898 27.4621 113.256 39.0072 109.57 51.9185C105.883 64.8299 102.606 80.3371 99.6708 98.5086C99.3977 99.465 98.9198 99.9432 98.2372 99.9432H98.0323C98.0323 99.9432 97.4862 99.8066 97.1449 99.5333C96.8035 99.2601 96.667 98.9185 96.667 98.5086C98.5102 62.8488 100.012 41.4665 101.104 34.3618C101.377 32.2441 102.128 30.1264 103.425 28.1453C104.723 26.1642 106.361 23.9781 108.341 21.7237C110.457 19.0595 111.959 17.0101 112.778 15.7121C113.597 14.3458 114.007 12.9796 114.007 11.4767C114.007 9.49555 113.529 7.71939 112.505 6.28479C111.481 4.78189 109.911 3.48392 107.795 2.25427C106.975 1.70776 106.566 1.16125 106.566 0.683049C106.566 0.204851 107.044 -0.136719 107.999 -0.136719H181.524C182.616 -0.136719 183.367 0.0682231 183.845 0.546421C184.323 1.02462 184.527 1.77607 184.527 2.8691V181.305C184.527 182.398 184.323 183.15 183.845 183.628C183.367 184.106 182.616 184.311 181.524 184.311H106.02C105.61 184.311 105.269 184.174 104.996 183.901C104.723 183.628 104.586 183.355 104.586 183.081L103.972 175.43C103.835 174.61 103.494 173.859 102.879 173.244C102.265 172.561 101.514 172.219 100.558 172.219H84.1057C83.2865 172.219 82.5356 172.561 81.9212 173.244C81.2385 173.927 80.8289 174.679 80.6924 175.43L80.078 183.081C80.078 183.491 79.9414 183.764 79.6001 183.969C79.2587 184.174 78.9857 184.243 78.7126 184.243H3.20858C1.09228 184.243 0 183.218 0 181.237V3.00572ZM137.628 47.1365C137.628 47.5464 137.969 48.5711 138.652 50.1424C141.314 55.1976 143.703 59.3647 145.888 62.5755C148.004 65.7863 150.735 69.4752 154.08 73.574C154.626 74.2572 155.241 74.5988 155.855 74.5988C156.674 74.5988 157.084 74.1206 157.084 73.1642V21.0406C157.084 19.9476 156.674 19.4694 155.855 19.4694C155.445 19.4694 154.831 19.8793 154.08 20.699C151.008 24.5929 148.346 28.1453 146.161 31.356C143.976 34.5668 141.451 38.8022 138.652 43.9941C137.969 45.5653 137.628 46.6583 137.628 47.2049V47.1365ZM27.2388 73.1642C27.2388 74.1206 27.6484 74.5988 28.4676 74.5988C29.1503 74.5988 29.7647 74.2572 30.2426 73.574C33.5877 69.4069 36.3184 65.7863 38.4347 62.5755C40.551 59.3647 43.0086 55.1976 45.6711 50.1424C46.3537 48.9127 46.6951 47.9563 46.6951 47.1365C46.6951 46.1801 46.3537 45.1554 45.6711 43.9258C42.8721 38.7339 40.3462 34.4985 38.1616 31.2877C35.9771 28.0769 33.3146 24.5246 30.2426 20.6307C29.4234 19.811 28.8089 19.4011 28.4676 19.4011C27.6484 19.4011 27.2388 19.9476 27.2388 20.9723V73.0958V73.1642ZM18.0227 163.202C18.0227 163.748 18.2275 164.158 18.7053 164.5C19.1832 164.841 19.7976 164.978 20.6168 164.978H163.638C164.457 164.978 165.071 164.841 165.549 164.5C166.027 164.158 166.232 163.748 166.232 163.202V146.192C166.232 131.641 162.34 118.32 154.626 106.296C146.912 94.2732 136.604 85.3924 123.769 79.654C122.95 79.3807 122.472 79.5857 122.336 80.2688C119.946 85.8706 117.625 93.0435 115.304 101.719C115.304 102.676 115.577 103.291 116.123 103.7C123.633 107.731 129.572 113.333 134.078 120.642C138.583 127.952 140.836 136.013 140.973 144.826C140.973 145.782 140.495 146.26 139.539 146.26H44.647C43.6913 146.26 43.2134 145.782 43.2134 144.826C43.35 136.013 45.6711 127.952 50.1085 120.642C54.6141 113.333 60.5534 107.731 68.0628 103.7C68.609 103.291 68.8821 102.607 68.8821 101.719C66.6292 93.0435 64.3081 85.8706 61.8505 80.2688C61.714 79.5857 61.2361 79.3807 60.4169 79.654C47.5826 85.3924 37.2741 94.2732 29.5599 106.296C21.7774 118.32 17.9544 131.641 17.9544 146.192V163.202H18.0227Z" fill="#D80000"/>
</g>
<defs>
<clipPath id="clip0_264_180">
<rect width="705" height="188" fill="white"/>
</clipPath>
</defs>
</svg>
